<?xml version="1.0" encoding="UTF-8"?>
<!DOCTYPE svg  PUBLIC '-//W3C//DTD SVG 1.1//EN'  'http://www.w3.org/Graphics/SVG/1.1/DTD/svg11.dtd'>
<svg enable-background="new 0 0 1191 1137" version="1.1" width="400" height="400" viewBox="0 0 1191 1100" xml:space="preserve" xmlns="http://www.w3.org/2000/svg">
<style type="text/css">
<![CDATA[
	.st0{fill:#13A9C9;}
	.st1{fill:#E35B4D;}
	.st2{fill:#19324C;}
	.st3{fill:#1C2443;}
	.st4{fill:#1C2547;}
	.st5{fill:#1C2A49;}
	.st6{fill:#1F2238;}
	.st7{fill:#21415F;}
	.st8{fill:#F04930;}
	.st9{fill:#F15537;}
	.st10{fill:#253053;}
	.st11{fill:#25538B;}
	.st12{fill:#F47961;}
	.st13{fill:#F6907F;}
	.st14{fill:#285F9F;}
	.st15{fill:#F79D7C;}
	.st16{fill:#F89E7C;}
	.st17{fill:#9175A7;}
	.st18{fill:#956581;}
	.st19{fill:#2C4784;}
	.st20{fill:#FBC5AC;}
	.st21{fill:#FBC6AC;}
	.st22{fill:#2F5CAA;}
	.st23{fill:#FFFFFF;}
	.st24{fill:#CBACD2;}
	.st25{fill:#69BE60;}
	.st26{fill:#CE8C96;}
	.st27{fill:#354EA2;}
	.st28{fill:#3A81AE;}
	.st29{fill:#A182B8;}
	.st30{fill:#A66E8B;}
	.st31{fill:#A85E6D;}
	.st32{fill:#404880;}
	.st33{fill:#405284;}
]]>
</style>
		<polyline class="st0" points="649.41 867.39 668.09 1290.7 580.94 1294.9 568.49 996.05 529.06 1002.3 452.28 1301.1 358.9 1284.5 419.08 1014.7 412.86 940.02 427.38 840.42 649.41 867.39"/>
		<polyline class="st21" points="731.9 386.51 923.32 472.1 881.3 553.03 686.77 459.65 731.9 386.51"/>
		<polyline class="st21" points="269.68 529.16 243.22 610.61 151.4 430.08 67.364 451.87 16.006 416.08 2 430.08 61.139 512.57 140.51 450.32 246.34 770.91 338.16 558.21 269.68 529.16"/>
		<path class="st28" d="m424.44 867.84-5.267 36.108 96.404 40.232 135.26-37.314-0.723-16.368c-14.177 4.714-41.131 11.938-80.59 15.285-3.153 0.267-6.385 0.394-9.692 0.394-48.509 0-111.71-27.259-135.39-38.337"/>
		<polyline class="st22" points="777.56 445.65 762 465.88 758.88 665.08 741.76 677.53 733.98 725.78 835.14 758.46 847.59 732 850.7 615.28 777.56 445.65"/>
		<polyline class="st20" points="257.23 567.04 257.33 567.18 257.38 567.05 257.23 567.04"/>
		<polyline class="st16" points="257.38 567.05 257.33 567.18 304.66 634.78 316.94 606.33 258.14 567.12 257.38 567.05"/>
		<polyline class="st20" points="740.17 485.28 748.24 489.22 748.25 489.16 740.17 485.28"/>
		<polyline class="st16" points="759.92 399.74 751.7 413.68 718.64 474.78 740.17 485.28 748.25 489.16 759.92 399.74"/>
		<path class="st20" d="m791.83 172.75s-66.44 113.6-40.361 150.85c26.069 37.253 70.156 35.394 70.156 35.394l22.347 42.834 11.174 93.109 27.939 18.627 28.549-115.47-34.761-65.802 59.291-37.558 13.952-100.25-76.343-92.511-89.396 9.313 7.453 61.459"/>
		<path class="st15" d="m917.54 257.49s-21.962 32.274-38.031 32.337h-0.047-2e-3c-1.277 0-2.516-0.205-3.704-0.646-0.039-0.014-0.077-0.029-0.115-0.043-0.947-0.368-1.784-0.773-2.52-1.21-28.6 29.167-65.907 52.605-105.29 52.908 22.093 17.216 47.441 18.167 52.778 18.167 0.664 0 1.018-0.015 1.018-0.015l22.347 42.834 11.174 93.109 27.939 18.627 28.549-115.47-34.761-65.802c-4e-3 -0.132-6e-3 -0.263-6e-3 -0.395-6e-3 -9.513 10.876-19.472 10.876-19.472s29.904-1.289 40.038-15.831c5.417-7.771 7.438-14.113 7.436-19.25-9e-3 -15.174-17.679-19.849-17.679-19.849"/>
		<polyline class="st27" points="820.7 616.53 808.15 673.38 780.79 698.13 788.44 701.4 827.87 751.2 822.4 753.63 834.1 757.42 846.55 730.96 847.12 709.69 820.7 616.53"/>
		<path class="st2" d="m876.87 332.29c41.595-20.792 58.342-23.6 79.449-39.722 32.287-24.84 39.686-35.941 39.437-76.988-0.311-49.351-35.388-104.29-35.388-104.29s-7.441-47.497-62.391-85.668c3.726 13.034 11.174 38.171 11.174 49.352-29.795-85.669-110.81-74.496-110.81-74.496l19.55 59.595s-43.442-19.252-59.595-27.928c-14.9 47.485-23.885 120.12 23.283 161.09 27.94-79.154 154.88-11.173 116.39 49.668-6.201 8.693-44.682 37.545-22.335 46.239 16.134 6.213 41.898-31.648 41.898-31.648s31.661 8.377 10.244 39.102c-10.134 14.542-40.038 15.831-40.038 15.831s-11.186 10.235-10.87 19.865"/>
		<path class="st1" d="m793.67 239.18c-9.739-0.657-16.936-5.848-19.586-15.417-2.566-9.29 11.811-13.216 14.37-3.965 0.815 2.943 2.092 4.269 5.216 4.487 9.533 0.633 9.605 15.551 0 14.895z"/>
		<polyline class="st2" points="768.86 1598.7 946.41 1042.5 970.62 1046.2 994.82 1631 1064.4 1611.1 1093.5 982.88 968.75 863.69 864.46 869.27 862.59 982.88 706.16 1597.5 768.86 1598.7"/>
		<polyline class="st22" points="1093.5 878.58 1099.1 908.39 1110.3 925.14 1110.3 1005.2 1084.2 1012.7 933.37 966.12 864.46 869.27 1093.5 878.58"/>
		<polyline class="st5" points="878.52 889.04 896.05 913.68 878.52 889.04 878.52 889.04"/>
		<polyline class="st27" points="1095.4 888.69 1086.1 899.07 924.06 908.39 878.52 889.04 896.05 913.68 1056.3 938.19 1102.1 912.9 1099.1 908.39 1095.4 888.69"/>
		<polygon class="st22" points="940.2 360.85 896.73 575.63 834.65 492.47 812.31 417.97 832.17 420.44 835.9 395.62 853.27 405.54 853.27 427.9 875.62 485.02 893.01 416.72 878.11 394.37 894.24 359.59 919.08 370.77"/>
		<polyline class="st9" points="1048.8 316.15 940.2 360.85 896.73 575.63 836.53 485.62 812.31 417.97 769 434.17 853.29 731.47 849.56 876.73 924.06 908.39 1086.1 899.07 1102.8 880.45 1091.7 599.23 1048.8 316.15"/>
		<polygon class="st13" points="953.86 355.89 932.75 488.74 907.92 609.18 823.49 494.94 801.14 414.25 821.02 414.25 855.15 494.94 891.79 543.36 916.62 439.07 930.27 364.57"/>
		<polyline class="st13" points="1048.8 316.15 1027.1 321.13 994.82 408.03 991.1 538.4 1040.8 568.19 1058.1 370.79 1048.8 316.15"/>
		<polygon class="st13" points="816.14 573.24 790.11 434.17 766.53 429.2 806.22 567"/>
		<polygon class="st13" points="1105.3 858.72 1055.7 882.31 919.1 884.8 849.56 857.49 845.84 879.84 924.06 908.39 1086.7 904.67 1109.1 881.08"/>
		<path class="st29" d="m995.7 212.76c0.03 0.94 0.049 1.882 0.055 2.818 4e-3 0.642 6e-3 1.275 6e-3 1.902 0-0.627-2e-3 -1.261-6e-3 -1.902-5e-3 -0.937-0.024-1.877-0.055-2.818"/>
		<path class="st30" d="m905.13 220.47c-0.238 7.392-2.432 14.955-7.155 22.433-4.833 6.774-29.269 25.792-29.244 37.97-0.025-12.178 24.411-31.196 29.244-37.97 4.723-7.464 6.956-15.037 7.187-22.431-0.011-1e-3 -0.021-1e-3 -0.032-2e-3"/>
		<path class="st31" d="m879.51 289.83h-0.047c0.016 1e-3 0.032 0 0.047 0m-3.753-0.645c1.188 0.441 2.427 0.645 3.704 0.646-1.275-1e-3 -2.517-0.206-3.704-0.646"/>
		<path class="st4" d="m993.13 191.61c-20 17.751-55.595 27.405-74.051 28.949-1.999 0.103-3.936 0.147-5.83 0.147-2.769 0-5.447-0.093-8.09-0.23-0.231 7.394-2.464 14.967-7.187 22.431-4.833 6.774-29.269 25.792-29.244 37.97 7e-3 3.449 1.976 6.35 6.908 8.269 0.038 0.015 0.076 0.029 0.115 0.043 1.187 0.44 2.429 0.645 3.704 0.646h2e-3 0.047c16.068-0.067 38.031-32.337 38.031-32.337s17.67 4.675 17.679 19.851c3e-3 5.138-2.019 11.479-7.436 19.25-10.134 14.542-40.038 15.831-40.038 15.831s-10.882 9.959-10.876 19.472c0 0.132 2e-3 0.263 6e-3 0.395 41.595-20.792 58.342-23.6 79.449-39.722 31.783-24.452 39.448-35.591 39.443-75.085 0-0.627-2e-3 -1.261-6e-3 -1.902-6e-3 -0.937-0.024-1.878-0.055-2.818-0.234-7.036-1.187-14.136-2.571-21.16"/>
		<polyline class="st29" points="946.41 1042.5 905.53 1170.5 905.51 1170.7 946.42 1042.5 946.41 1042.5"/>
		<polyline class="st4" points="927.17 1018.3 922.83 1051.8 905.53 1170.5 946.41 1042.5 946.42 1042.5 946.42 1042.5 970.63 1046.2 927.17 1018.3"/>
		<polyline class="st22" points="1047.8 329.96 1097.6 334.1 1170.3 649.52 1184.8 674.42 1128.8 749.12 1045.8 699.32 1056.1 624.62 1067 621.51 1033.3 529.16 1025 410.89 1047.8 329.96"/>
		<polyline class="st24" points="1099.8 731.76 1099.3 732.08 1127.7 749.12 1128 748.69 1099.8 731.76"/>
		<polyline class="st27" points="1160.1 609.9 1151.6 673.38 1130.6 667.08 1152.6 696.21 1148.7 698.85 1149.4 698.71 1099.8 731.76 1128 748.69 1183.7 674.42 1169.2 649.52 1160.1 609.9"/>
		<polyline class="st20" points="1109 638.63 867.82 540.58 718.42 548.36 667.06 526.57 662.39 545.25 710.64 593.5 847.59 556.14 1082.6 742.9 1152.6 696.21 1109 638.63"/>
		<polyline class="st20" points="827.87 751.2 788.44 701.4 567.46 606.99 481.34 630.84 415.97 612.17 402.49 627.73 491.72 678.58 570.57 621.51 771.84 776.1 827.87 751.2"/>
		<path class="st2" d="m361.02 162.77c-28.585 49.023-10.882 115.75 51.758 115.75-1.362 10.895-12.255 16.341-21.8 20.427 34.056 21.788 78.994-5.447 87.164-39.491 10.894-38.129 8.171-88.514-14.979-121.2-12.255-17.699-57.193-54.473-77.632-27.232l-24.511 51.744"/>
		<path class="st17" d="m391.88 299.51c-0.304 0.132-0.607 0.263-0.909 0.393 8.475 5.419 17.619 7.802 26.707 7.802 8.424 0 16.797-2.049 24.532-5.629v-0.949c-7.733 3.578-16.101 5.625-24.522 5.625-8.765-1e-3 -17.589-2.22-25.808-7.242m-44.067-84.814c1.091 34.593 22.824 64.699 64.813 64.768 0.057-0.312 0.104-0.628 0.145-0.948-41.708 0-63.493-29.578-64.958-63.82"/>
		<path class="st3" d="m348.07 204.7c-0.272 3.358-0.355 6.696-0.251 9.995 1.465 34.242 23.25 63.819 64.958 63.819-0.041 0.32-0.088 0.637-0.145 0.948h0.145c-1.319 10.55-11.577 15.992-20.891 20.046 8.218 5.021 17.043 7.241 25.808 7.241 8.421 0 16.789-2.047 24.522-5.625l-2e-3 -10.343-2.031-11.247s-37.971-16.632-47.065-40.123c0.224 0.167 0.447 0.333 0.671 0.498-0.822-2.026-1.431-4.105-1.782-6.229-15.858-4.646-30.494-13.551-42.32-27.012-0.559-0.643-1.094-1.312-1.617-1.968"/>
		<path class="st21" d="m533.97 100.14s70.098 181.92 20.086 189.61l-39.831 6.116 12.243 43.953 40.464-3.112-56.112 87.517-136.87-54.834 68.781-21.423v-57.182l-2.042-11.247s-49.036-21.448-49.036-50.044c0-28.597 39.844-13.277 39.844-13.277s27.575-61.62-9.192-83.407c-36.78-21.787 57.193-51.746 57.193-51.746l54.47 19.072"/>
		<path class="st2" d="m523.08 93.314c20.427 2.724 42.214 25.874 57.181 38.142-40.84 23.141-80.331 36.758-127.99 29.938-17.702-1.35-50.384-12.244-59.917-29.938-16.353-31.32 36.767-54.482 59.917-59.923l70.812 21.781"/>
		<path class="st11" d="m548.95 91.959s-34.931-84.478-125.62-59.583c-69.438 19.065-85.791 65.699-85.791 97.025 0 31.323 13.277 53.111 13.277 53.111l155.92-66.042 42.215-24.511"/>
		<path class="st14" d="m615.77 44.389s-16.377 45.406-86.37 77.425c-69.973 32.017-91.846 24.417-91.846 24.417l178.22-101.84z"/>
		<path class="st1" d="m549.94 232.28c-4.644-8.019-9.283-16.037-13.922-24.05-4.03-6.961 6.729-13.229 10.749-6.286 4.644 8.019 9.283 16.038 13.922 24.05 4.029 6.961-6.731 13.228-10.749 6.286z"/>
		<path class="st24" d="m337.54 129.9c0 0.15-1e-3 0.302-1e-3 0.452 0 31.317 13.277 53.093 13.277 53.093l1.302-0.551c0.113-0.36 0.23-0.725 0.347-1.084l-1.649 0.699c0-1e-3 -13.135-21.556-13.276-52.609"/>
		<path class="st5" d="m420.38 153.05-67.917 28.767c-0.117 0.359-0.234 0.724-0.347 1.084l69.393-29.376c-0.377-0.156-0.754-0.315-1.129-0.475"/>
		<path class="st5" d="m423.14 151.88-2.759 1.169c0.375 0.16 0.752 0.319 1.129 0.475l2.803-1.187c-0.392-0.15-0.783-0.302-1.173-0.457"/>
		<path class="st19" d="m356.2 74.822c-14.048 18.438-18.581 38.785-18.663 55.082 0.141 31.053 13.276 52.608 13.276 52.608l1.649-0.699 67.917-28.767 2.759-1.169c-8.269-3.283-16.062-7.662-23.156-13.537-20.475-15.919-35.102-38.667-43.782-63.518"/>
		<path class="st20" d="m442.73 301.83c-0.173 0.082-0.346 0.163-0.52 0.243l0.01 45.891-40.365 12.573c0.041 0.039 0.085 0.081 0.126 0.12l40.75-12.692v-46.135"/>
		<path class="st18" d="m442.73 300.88c-0.173 0.082-0.346 0.163-0.52 0.243v0.949c0.174-0.081 0.347-0.161 0.52-0.243v-0.949"/>
		<path class="st6" d="m393.12 239.41c9.094 23.491 47.065 40.123 47.065 40.123l2.031 11.247 2e-3 10.343c0.174-0.081 0.347-0.161 0.52-0.243v-10.1l-2.042-11.247s-37.48-16.394-46.905-39.625c-0.224-0.165-0.448-0.331-0.671-0.498"/>
		<path class="st20" d="m531.75 339.37-5.296 0.407 0.011 0.039 5.292-0.407c-2e-3 -0.013-5e-3 -0.027-7e-3 -0.039"/>
		<path class="st16" d="m393.79 239.91c9.425 23.231 46.905 39.625 46.905 39.625l2.042 11.247v57.183l-40.75 12.692c12.582 11.951 36.879 30.413 66.927 30.413 9.351 0 19.261-1.789 29.545-6.119 33.443-14.082 35.175-34.661 33.305-45.54l-5.292 0.407-0.011-0.039-0.5 0.039-12.255-43.953 39.843-6.116c7.501-1.155 12.255-6.298 14.991-14.091-14.677 1.216-29.099 2.458-43.232 2.458-30.509 0-59.659-5.789-87.021-30.118-3.912 3.912-8.521 5.57-13.548 5.57-9.46-2e-3 -20.4-5.875-30.949-13.658"/>
		<polygon class="st25" points="505.44 83.189 474.79 52.545 471.79 76.617 438.41 66.795 453.61 110.36 456.44 109.37 443.17 71.322 474.33 80.491 477.01 59.004 503.32 85.311"/>
		<path class="st7" d="m618.29 304.02-88.712 28.014s16.231 32.973-31.126 52.914c-59.139 24.9-105.83-34.238-105.83-34.238l-108.94 51.357-37.351 157.19 84.039 56.026 37.352-82.483 36.829 108.42 10.371 222.03s93.389 47.723 154.6 42.542c61.216-5.191 92.341-19.72 92.341-19.72l-28.006-315.92-17.12-133.84 94.934 51.358 51.358-94.934-144.74-88.709"/>
		<path class="st21" d="m1103.9 324.26-54.47-29.569s-45.133 31.126-49.802 32.683c-4.669 1.555 23.345 40.463 23.345 40.463l70.033 7.781 10.894-51.358"/>
		<polygon class="st25" points="606.88 447.2 505.2 465.88 513.51 511.52 611.03 486.62"/>
		<polygon class="st23" points="496.9 471.06 502.09 512.57 396.26 537.47 392.12 490.78"/>
		<polyline class="st20" points="1103.7 324.95 1099.8 343.45 1099.9 343.83 1103.9 325.04 1103.7 324.95"/>
		<path class="st8" d="m1013.4 354.1-0.49 0.033c0.419 0.627 0.835 1.247 1.246 1.855l0.184-0.494c-0.311-0.458-0.625-0.925-0.94-1.394"/>
		<path class="st12" d="m1014.3 355.49-0.184 0.494c4.74 7.024 8.767 12.626 8.767 12.626l13.573 1.508 0.213-0.754-13.786-1.532s-3.92-5.445-8.583-12.342"/>
		<polyline class="st33" points="1099.8 343.45 1093 375.61 1036.7 369.36 1036.5 370.12 1093 376.39 1099.9 343.83 1099.8 343.45"/>
		<path class="st16" d="m1101 323.49-36.854 27.223-50.763 3.383c0.315 0.47 0.629 0.936 0.939 1.394 4.663 6.897 8.583 12.342 8.583 12.342l70.034 7.782 6.822-32.16 3.924-18.5-2.685-1.464"/>
		<polyline class="st20" points="1099.1 731.92 1097 733.29 1097 733.63 1099.3 732.08 1099.1 731.92"/>
		<polyline class="st8" points="964.52 650.93 1081.6 743.93 1097 733.63 1097 733.29 1082.6 742.9 971.59 654.69 964.52 650.93"/>
		<polyline class="st26" points="1099.5 731.6 1099.1 731.92 1099.3 732.08 1099.8 731.76 1099.5 731.6"/>
		<polyline class="st32" points="1149.4 698.71 1148.7 698.85 1099.5 731.6 1099.8 731.76 1149.4 698.71"/>
		<polyline class="st15" points="971.59 654.69 1082.6 742.9 1097 733.29 1099.1 731.92 1099.5 731.6 1148.7 698.85 1079.5 712.03 971.59 654.69"/>
		<polyline class="st15" points="669.73 697.67 771.84 776.1 827.87 751.2 808.51 726.75 770.81 749.12 669.73 697.67"/>
		<polyline class="st10" points="385.88 482.48 367.73 532.8 402.49 627.73 385.88 482.48"/>
		<polyline class="st10" points="629.19 409.85 616.74 436.31 692.99 476.77 629.19 409.85"/>
		<polyline class="st28" points="594.43 952.47 529.06 1001.2 568.49 995 571.31 1062.8 600.66 986.71 594.43 952.47"/>
		<polyline class="st16" points="140.51 449.54 60.361 490 46.5 491.36 61.139 511.79 140.51 449.54"/>
</svg>
