<?xml version="1.0" encoding="UTF-8" standalone="no"?>
<svg xmlns="http://www.w3.org/2000/svg" height="40px" width="375px" version="1.1" xmlns:xlink="http://www.w3.org/1999/xlink" viewBox="0 0 375 40"><!-- Generator: Sketch 44 (41411) - http://www.bohemiancoding.com/sketch -->
 <title>logo-moneysmart-darkbg</title>
 <desc>Created with Sketch.</desc>
 <g id="Page-1" fill-rule="evenodd" fill="none">
  <g id="logo-moneysmart-darkbg">
   <g id="Group" transform="translate(1)">
    <polyline id="Fill-3" points="34.493 0.44606 41.337 0.44606 46.01 38.778 37.832 38.778 35.161 15.801 26.204 34.383 19.918 34.383 10.904 15.801 8.1782 38.778 0 38.778 4.7297 0.44606 11.461 0.44606 23.033 25.148 34.493 0.44606" fill="#8CBA00"/>
    <path id="Fill-4" fill="#8CBA00" d="m67.367 31.267c6.342 0 11.349-5.174 11.349-11.572s-5.007-11.627-11.349-11.627c-6.343-0.0001-11.294 5.229-11.294 11.627s4.951 11.572 11.294 11.572zm0-31.267c10.905 0 19.472 8.7903 19.472 19.695 0 10.793-8.567 19.64-19.472 19.64-10.848 0-19.417-8.847-19.417-19.64 0-10.905 8.569-19.695 19.417-19.695z"/>
    <polyline id="Fill-5" points="119.83 38.778 112.54 38.778 99.184 15.578 99.184 38.778 91.062 38.778 91.062 0.44606 98.518 0.44606 111.65 23.367 111.65 0.44606 119.83 0.44606 119.83 38.778" fill="#8CBA00"/>
    <polyline id="Fill-6" points="127.8 0.44606 152.05 0.44606 152.05 7.6218 135.92 7.6218 135.92 16.358 150.05 16.358 150.05 23.423 135.92 23.423 135.92 31.601 152.56 31.601 152.56 38.778 127.8 38.778 127.8 0.44606" fill="#8CBA00"/>
    <path id="Fill-7" fill="#fff" d="m201.63 27.539c0.11 2.449 2.06 4.619 5.73 4.619 3.28 0 5.56-1.558 5.62-4.062 0.06-1.725-0.72-3.227-4.62-4.34l-4.61-1.28c-8.46-2.614-9.91-7.566-9.91-11.015 0-6.8428 5.84-11.461 13.19-11.461 7.4 0 12.96 4.3952 12.96 11.739h-8.12c0-2.5584-1.73-4.339-4.95-4.339-2.84 0-4.96 1.5576-4.96 3.839 0 1.001 0.4 2.837 4.12 3.894l4.56 1.446c9.29 2.671 10.63 7.901 10.52 11.573-0.11 7.621-7.01 11.238-13.8 11.238-8.34 0-13.91-4.951-13.91-11.851h8.18"/>
    <polyline id="Fill-8" points="259.28 0.44606 266.12 0.44606 270.8 38.778 262.62 38.778 259.95 15.801 250.99 34.383 244.7 34.383 235.69 15.801 232.96 38.778 224.79 38.778 229.52 0.44606 236.25 0.44606 247.82 25.148 259.28 0.44606" fill="#fff"/>
    <path id="Fill-9" fill="#fff" d="m295.81 22.644l-4.06-13.352-3.9 13.352h7.96zm-10.63 7.065l-3.39 9.069h-8.68l14.24-38.332 8.85 0.00006 14.19 38.332h-8.57l-3.4-9.069h-13.24z"/>
    <path id="Fill-10" fill="#fff" d="m321.81 7.6218v10.794h6.9c3.17 0 4.84-2.894 4.84-5.397 0-2.392-1.55-5.3972-4.62-5.3972h-7.12zm20.2 31.156h-9.79l-8.57-13.241h-1.84v13.241h-8.17v-38.332l15.68 0.00006c8.68 0 12.74 6.286 12.74 12.573 0 5.453-3 10.793-9.56 12.183l9.51 13.576z"/>
    <polyline id="Fill-11" points="344.83 0.44606 373.76 0.44606 373.76 7.7891 363.41 7.7891 363.41 38.778 355.17 38.778 355.17 7.7891 344.83 7.7891 344.83 0.44606" fill="#fff"/>
    <path id="Fill-12" fill="#8CBA00" d="m159.11 0.32h7.24c2.57 2.7515 4.63 5.6206 6.25 8.6436-1.94 3.9614-3.19 8.0204-4 12.081-1.75-7.081-5.16-13.017-11.47-18.41l-2.71-2.315h4.69"/>
    <path id="Fill-13" fill="#8CBA00" d="m176.06 8.9636c1.62-3.023 3.68-5.8921 6.26-8.6436h11.92l-2.71 2.3152c-6.31 5.3927-9.71 11.329-11.47 18.41-1.29 5.211-1.69 11.041-1.7 17.733h-8.05c0.01-9.978 0.88-18.546 4.02-26.153 0.51-1.244 1.09-2.465 1.73-3.6614"/>
   </g>
  </g>
 </g>
</svg>
